AmstelvarA2-Roman_XTUR58.ufo
<glyph name="B" format="2">
	<unicode hex="0042"/>
	<advance width="944"/>
	<outline>
		<contour>
			<point x="82" y="0" type="line"/>
			<point x="82" y="100" type="line"/>
			<point x="290" y="136" type="line"/>
			<point x="292" y="784" type="line"/>
			<point x="290" y="1352" type="line"/>
			<point x="82" y="1386" type="line"/>
			<point x="82" y="1500" type="line"/>
			<point x="540" y="1500" type="line" smooth="yes"/>
			<point x="692" y="1500"/>
			<point x="842" y="1315"/>
			<point x="842" y="1172" type="qcurve" smooth="yes"/>
			<point x="842" y="1017"/>
			<point x="777" y="856"/>
			<point x="705" y="829" type="qcurve"/>
			<point x="705" y="819" type="line"/>
			<point x="784" y="798"/>
			<point x="878" y="602"/>
			<point x="878" y="433" type="qcurve" smooth="yes"/>
			<point x="878" y="246"/>
			<point x="717" y="0"/>
			<point x="575" y="0" type="qcurve" smooth="yes"/>
		</contour>
		<contour>
			<point x="470" y="123" type="line"/>
			<point x="487" y="115" type="line"/>
			<point x="533" y="115" type="line" smooth="yes"/>
			<point x="737" y="115"/>
			<point x="692" y="271"/>
			<point x="692" y="440" type="qcurve" smooth="yes"/>
			<point x="692" y="584"/>
			<point x="697" y="738"/>
			<point x="539" y="738" type="qcurve" smooth="yes"/>
			<point x="475" y="738" type="line"/>
			<point x="470" y="730" type="line"/>
		</contour>
		<contour>
			<point x="469" y="862" type="line"/>
			<point x="475" y="852" type="line"/>
			<point x="512" y="852" type="line" smooth="yes"/>
			<point x="668" y="852"/>
			<point x="662" y="991"/>
			<point x="662" y="1129" type="qcurve" smooth="yes"/>
			<point x="662" y="1255"/>
			<point x="665" y="1370"/>
			<point x="514" y="1370" type="qcurve" smooth="yes"/>
			<point x="485" y="1370" type="line"/>
			<point x="472" y="1363" type="line"/>
		</contour>
	</outline>
	<anchor name="bottom" x="502" y="0"/>
	<anchor name="top" x="502" y="1500"/>
</glyph>
<glyph name="C" format="2">
	<unicode hex="0043"/>
	<advance width="630"/>
	<outline>
		<contour>
			<point x="80" y="700" type="qcurve" smooth="yes"/>
			<point x="80" y="1080"/>
			<point x="203" y="1520"/>
			<point x="329" y="1520" type="qcurve" smooth="yes"/>
			<point x="354" y="1520"/>
			<point x="405" y="1482"/>
			<point x="434" y="1422" type="qcurve"/>
			<point x="466" y="1500" type="line"/>
			<point x="561" y="1500" type="line"/>
			<point x="561" y="1031" type="line"/>
			<point x="447" y="1031" type="line"/>
			<point x="428" y="1199" type="line" smooth="yes"/>
			<point x="416" y="1306"/>
			<point x="391" y="1392"/>
			<point x="370" y="1392" type="qcurve" smooth="yes"/>
			<point x="97" y="1392"/>
			<point x="271" y="1061"/>
			<point x="271" y="740" type="qcurve" smooth="yes"/>
			<point x="271" y="442"/>
			<point x="125" y="114"/>
			<point x="386" y="114" type="qcurve" smooth="yes"/>
			<point x="414" y="114"/>
			<point x="479" y="194"/>
			<point x="494" y="328" type="qcurve"/>
			<point x="590" y="245" type="line"/>
			<point x="553" y="107"/>
			<point x="435" y="-30"/>
			<point x="354" y="-30" type="qcurve" smooth="yes"/>
			<point x="226" y="-30"/>
			<point x="80" y="361"/>
		</contour>
	</outline>
	<anchor name="bottom" x="334" y="0"/>
	<anchor name="top" x="334" y="1500"/>
</glyph>
<glyph name="D" format="2">
	<unicode hex="0044"/>
	<advance width="825"/>
	<outline>
		<contour>
			<point x="82" y="0" type="line"/>
			<point x="82" y="100" type="line"/>
			<point x="290" y="135" type="line"/>
			<point x="292" y="754" type="line"/>
			<point x="290" y="1352" type="line"/>
			<point x="82" y="1386" type="line"/>
			<point x="82" y="1500" type="line"/>
			<point x="520" y="1500" type="line" smooth="yes"/>
			<point x="628" y="1500"/>
			<point x="745" y="1119"/>
			<point x="745" y="777" type="qcurve" smooth="yes"/>
			<point x="745" y="410"/>
			<point x="637" y="0"/>
			<point x="502" y="0" type="qcurve" smooth="yes"/>
		</contour>
		<contour>
			<point x="470" y="125" type="line"/>
			<point x="477" y="119"/>
			<point x="498" y="115"/>
			<point x="508" y="115" type="qcurve"/>
			<point x="786" y="115"/>
			<point x="556" y="439"/>
			<point x="554" y="761" type="qcurve" smooth="yes"/>
			<point x="555" y="1058"/>
			<point x="806" y="1375"/>
			<point x="502" y="1375" type="qcurve"/>
			<point x="494" y="1375"/>
			<point x="475" y="1371"/>
			<point x="470" y="1368" type="qcurve"/>
			<point x="467" y="754" type="line"/>
		</contour>
	</outline>
	<anchor name="bottom" x="397" y="0"/>
	<anchor name="center" x="375" y="754"/>
	<anchor name="top" x="471" y="1500"/>
	<anchor name="liga" x="862" y="0"/>
</glyph>
<glyph name="G" format="2">
	<unicode hex="0047"/>
	<advance width="729"/>
	<outline>
		<contour>
			<point x="80" y="744" type="qcurve" smooth="yes"/>
			<point x="80" y="1087"/>
			<point x="204" y="1520"/>
			<point x="320" y="1520" type="qcurve" smooth="yes"/>
			<point x="340" y="1520"/>
			<point x="395" y="1488"/>
			<point x="425" y="1427" type="qcurve"/>
			<point x="456" y="1500" type="line"/>
			<point x="560" y="1500" type="line"/>
			<point x="560" y="1041" type="line"/>
			<point x="446" y="1041" type="line"/>
			<point x="426" y="1193" type="line" smooth="yes"/>
			<point x="412" y="1298"/>
			<point x="393" y="1384"/>
			<point x="369" y="1384" type="qcurve" smooth="yes"/>
			<point x="96" y="1384"/>
			<point x="270" y="1057"/>
			<point x="271" y="768" type="qcurve" smooth="yes"/>
			<point x="272" y="475"/>
			<point x="67" y="95"/>
			<point x="354" y="95" type="qcurve" smooth="yes"/>
			<point x="384" y="95"/>
			<point x="425" y="152"/>
			<point x="431" y="207" type="qcurve"/>
			<point x="431" y="613" type="line"/>
			<point x="232" y="648" type="line"/>
			<point x="232" y="748" type="line"/>
			<point x="733" y="748" type="line"/>
			<point x="733" y="648" type="line"/>
			<point x="602" y="613" type="line"/>
			<point x="602" y="219" type="line"/>
			<point x="551" y="101"/>
			<point x="415" y="-30"/>
			<point x="336" y="-30" type="qcurve" smooth="yes"/>
			<point x="212" y="-30"/>
			<point x="80" y="394"/>
		</contour>
	</outline>
	<anchor name="bottom" x="344" y="0"/>
	<anchor name="top" x="378" y="1500"/>
</glyph>
<glyph name="P" format="2">
	<unicode hex="0050"/>
	<advance width="902"/>
	<outline>
		<contour>
			<point x="82" y="0" type="line"/>
			<point x="82" y="100" type="line"/>
			<point x="290" y="137" type="line"/>
			<point x="290" y="754" type="line"/>
			<point x="290" y="1352" type="line"/>
			<point x="82" y="1386" type="line"/>
			<point x="82" y="1500" type="line"/>
			<point x="548" y="1500" type="line" smooth="yes"/>
			<point x="669" y="1500"/>
			<point x="852" y="1284"/>
			<point x="852" y="1072" type="qcurve" smooth="yes"/>
			<point x="852" y="866"/>
			<point x="662" y="599"/>
			<point x="542" y="599" type="qcurve" smooth="yes"/>
			<point x="518" y="599"/>
			<point x="437" y="612"/>
			<point x="388" y="628" type="qcurve"/>
			<point x="397" y="734" type="line"/>
			<point x="414" y="721"/>
			<point x="476" y="712"/>
			<point x="505" y="712" type="qcurve" smooth="yes"/>
			<point x="676" y="712"/>
			<point x="657" y="903"/>
			<point x="657" y="1072" type="qcurve" smooth="yes"/>
			<point x="657" y="1227"/>
			<point x="700" y="1382"/>
			<point x="540" y="1382" type="qcurve" smooth="yes"/>
			<point x="481" y="1382" type="line"/>
			<point x="471" y="1375" type="line"/>
			<point x="468" y="764" type="line"/>
			<point x="470" y="132" type="line"/>
			<point x="678" y="100" type="line"/>
			<point x="678" y="0" type="line"/>
		</contour>
	</outline>
	<anchor name="bottom" x="361" y="0"/>
	<anchor name="top" x="361" y="1500"/>
</glyph>
<glyph name="R" format="2">
	<unicode hex="0052"/>
	<advance width="903"/>
	<outline>
		<contour>
			<point x="82" y="0" type="line"/>
			<point x="82" y="100" type="line"/>
			<point x="290" y="136" type="line"/>
			<point x="292" y="794" type="line"/>
			<point x="290" y="1352" type="line"/>
			<point x="82" y="1386" type="line"/>
			<point x="82" y="1500" type="line"/>
			<point x="536" y="1500" type="line" smooth="yes"/>
			<point x="664" y="1500"/>
			<point x="788" y="1315"/>
			<point x="788" y="1149" type="qcurve" smooth="yes"/>
			<point x="788" y="966"/>
			<point x="635" y="736"/>
			<point x="534" y="736" type="qcurve" smooth="yes"/>
			<point x="519" y="736"/>
			<point x="465" y="745"/>
			<point x="448" y="750" type="qcurve"/>
			<point x="448" y="845" type="line"/>
			<point x="506" y="845" type="line" smooth="yes"/>
			<point x="662" y="845"/>
			<point x="591" y="1005"/>
			<point x="591" y="1137" type="qcurve" smooth="yes"/>
			<point x="591" y="1253"/>
			<point x="651" y="1382"/>
			<point x="514" y="1382" type="qcurve" smooth="yes"/>
			<point x="482" y="1382" type="line"/>
			<point x="472" y="1375" type="line"/>
			<point x="468" y="794" type="line"/>
			<point x="470" y="136" type="line"/>
			<point x="686" y="100" type="line"/>
			<point x="686" y="0" type="line"/>
		</contour>
		<contour>
			<point x="479" y="788" type="line"/>
			<point x="648" y="805" type="line"/>
			<point x="751" y="315" type="line" smooth="yes"/>
			<point x="780" y="177"/>
			<point x="854" y="101"/>
			<point x="903" y="100" type="qcurve"/>
			<point x="903" y="0" type="line"/>
			<point x="672" y="0" type="line"/>
			<point x="643" y="20" type="line"/>
		</contour>
	</outline>
	<anchor name="bottom" x="443" y="0"/>
	<anchor name="top" x="526" y="1500"/>
</glyph>
<glyph name="S" format="2">
	<unicode hex="0053"/>
	<advance width="627"/>
	<outline>
		<contour>
			<point x="62" y="0" type="line"/>
			<point x="62" y="484" type="line"/>
			<point x="178" y="484" type="line"/>
			<point x="188" y="364" type="line" smooth="yes"/>
			<point x="200" y="215"/>
			<point x="279" y="102"/>
			<point x="325" y="102" type="qcurve" smooth="yes"/>
			<point x="496" y="102"/>
			<point x="425" y="244"/>
			<point x="425" y="370" type="qcurve" smooth="yes"/>
			<point x="425" y="491"/>
			<point x="366" y="610"/>
			<point x="288" y="700" type="qcurve" smooth="yes"/>
			<point x="216" y="783"/>
			<point x="80" y="1009"/>
			<point x="80" y="1144" type="qcurve" smooth="yes"/>
			<point x="80" y="1307"/>
			<point x="229" y="1520"/>
			<point x="308" y="1520" type="qcurve" smooth="yes"/>
			<point x="362" y="1520"/>
			<point x="411" y="1480"/>
			<point x="432" y="1431" type="qcurve"/>
			<point x="440" y="1487" type="line"/>
			<point x="529" y="1487" type="line"/>
			<point x="529" y="1051" type="line"/>
			<point x="425" y="1051" type="line"/>
			<point x="410" y="1208" type="line" smooth="yes"/>
			<point x="399" y="1325"/>
			<point x="358" y="1386"/>
			<point x="331" y="1386" type="qcurve" smooth="yes"/>
			<point x="205" y="1386"/>
			<point x="240" y="1270"/>
			<point x="240" y="1172" type="qcurve" smooth="yes"/>
			<point x="240" y="1068"/>
			<point x="281" y="978"/>
			<point x="356" y="892" type="qcurve" smooth="yes"/>
			<point x="437" y="799"/>
			<point x="588" y="578"/>
			<point x="588" y="418" type="qcurve" smooth="yes"/>
			<point x="588" y="225"/>
			<point x="446" y="-20"/>
			<point x="346" y="-20" type="qcurve" smooth="yes"/>
			<point x="292" y="-20"/>
			<point x="213" y="44"/>
			<point x="188" y="103" type="qcurve"/>
			<point x="166" y="0" type="line"/>
		</contour>
	</outline>
	<anchor name="bottom" x="349" y="0"/>
	<anchor name="top" x="339" y="1500"/>
</glyph>
<glyph name="U" format="2">
	<unicode hex="0055"/>
	<advance width="998"/>
	<outline>
		<contour>
			<point x="74" y="1386" type="line"/>
			<point x="74" y="1500" type="line"/>
			<point x="640" y="1500" type="line"/>
			<point x="640" y="1386" type="line"/>
			<point x="443" y="1352" type="line"/>
			<point x="438" y="794" type="line"/>
			<point x="442" y="374" type="line" smooth="yes"/>
			<point x="443" y="235"/>
			<point x="361" y="114"/>
			<point x="540" y="114" type="qcurve" smooth="yes"/>
			<point x="701" y="114"/>
			<point x="635" y="249"/>
			<point x="636" y="394" type="qcurve" smooth="yes"/>
			<point x="638" y="794" type="line"/>
			<point x="636" y="1352" type="line"/>
			<point x="468" y="1386" type="line"/>
			<point x="468" y="1500" type="line"/>
			<point x="924" y="1500" type="line"/>
			<point x="924" y="1386" type="line"/>
			<point x="776" y="1352" type="line"/>
			<point x="774" y="794" type="line"/>
			<point x="777" y="393" type="line" smooth="yes"/>
			<point x="779" y="169"/>
			<point x="626" y="-31"/>
			<point x="529" y="-31" type="qcurve" smooth="yes"/>
			<point x="420" y="-31"/>
			<point x="261" y="175"/>
			<point x="262" y="381" type="qcurve" smooth="yes"/>
			<point x="264" y="794" type="line"/>
			<point x="262" y="1352" type="line"/>
		</contour>
	</outline>
	<anchor name="bottom" x="512.4788029925" y="0"/>
	<anchor name="ogonek" x="623" y="0"/>
	<anchor name="top" x="512.4788029925" y="1500"/>
	<anchor name="topright" x="924" y="1500"/>
</glyph>
<glyph name="Schwa" format="2">
  <advance width="655"/>
  <unicode hex="018F"/>
  <outline>
    <contour>
      <point x="141" y="1199" type="line"/>
      <point x="169" y="1359"/>
      <point x="285" y="1519"/>
      <point x="369" y="1519" type="qcurve" smooth="yes"/>
      <point x="469" y="1519"/>
      <point x="575" y="1112"/>
      <point x="575" y="789" type="qcurve" smooth="yes"/>
      <point x="575" y="445"/>
      <point x="431" y="-30"/>
      <point x="323" y="-30" type="qcurve" smooth="yes"/>
      <point x="220" y="-30"/>
      <point x="102" y="281"/>
      <point x="102" y="578" type="qcurve" smooth="yes"/>
      <point x="102" y="686" type="line"/>
      <point x="419" y="686" type="line"/>
      <point x="419" y="554" type="line"/>
      <point x="361" y="557" type="line"/>
      <point x="298" y="556" type="line"/>
      <point x="298" y="481" type="line" smooth="yes"/>
      <point x="298" y="315"/>
      <point x="140" y="97"/>
      <point x="339" y="97" type="qcurve" smooth="yes"/>
      <point x="549" y="97"/>
      <point x="386" y="462"/>
      <point x="385" y="749" type="qcurve" smooth="yes"/>
      <point x="385" y="1047"/>
      <point x="543" y="1375"/>
      <point x="334" y="1375" type="qcurve" smooth="yes"/>
      <point x="316" y="1375"/>
      <point x="292" y="1234"/>
      <point x="285" y="1126" type="qcurve"/>
    </contour>
  </outline>
</glyph>
<glyph name="Theta" format="2">
	<unicode hex="0398"/>
	<advance width="739"/>
	<outline>
		<contour>
			<point x="371" y="-31" type="qcurve" smooth="yes"/>
			<point x="265" y="-31"/>
			<point x="80" y="382"/>
			<point x="80" y="746" type="qcurve" smooth="yes"/>
			<point x="80" y="1083"/>
			<point x="257" y="1520"/>
			<point x="369" y="1520" type="qcurve" smooth="yes"/>
			<point x="480" y="1520"/>
			<point x="659" y="1090"/>
			<point x="659" y="746" type="qcurve" smooth="yes"/>
			<point x="659" y="386"/>
			<point x="482" y="-31"/>
		</contour>
		<contour>
			<point x="371" y="101" type="qcurve" smooth="yes"/>
			<point x="647" y="101"/>
			<point x="468" y="463"/>
			<point x="468" y="746" type="qcurve" smooth="yes"/>
			<point x="468" y="1019"/>
			<point x="635" y="1380"/>
			<point x="369" y="1380" type="qcurve" smooth="yes"/>
			<point x="97" y="1380"/>
			<point x="271" y="1023"/>
			<point x="271" y="746" type="qcurve" smooth="yes"/>
			<point x="271" y="459"/>
			<point x="86" y="101"/>
		</contour>
		<contour>
			<point x="316" y="649" type="line"/>
			<point x="316" y="822" type="line"/>
			<point x="318" y="822" type="line"/>
			<point x="370" y="796" type="line"/>
			<point x="373" y="796" type="line"/>
			<point x="420" y="822" type="line"/>
			<point x="422" y="822" type="line"/>
			<point x="422" y="649" type="line"/>
			<point x="420" y="649" type="line"/>
			<point x="373" y="675" type="line"/>
			<point x="370" y="675" type="line"/>
			<point x="318" y="649" type="line"/>
		</contour>
	</outline>
</glyph>
<glyph name="Phi" format="2">
  <advance width="850"/>
  <unicode hex="03A6"/>
  <outline>
    <contour>
      <point x="160" y="-24" type="line"/>
      <point x="160" y="76" type="line"/>
      <point x="338" y="111" type="line"/>
      <point x="341" y="270" type="line"/>
      <point x="349" y="270" type="line"/>
      <point x="351" y="745" type="line"/>
      <point x="495" y="745" type="line"/>
      <point x="497" y="270" type="line"/>
      <point x="505" y="270" type="line"/>
      <point x="508" y="111" type="line"/>
      <point x="686" y="76" type="line"/>
      <point x="686" y="-24" type="line"/>
    </contour>
    <contour>
      <point x="351" y="745" type="line"/>
      <point x="349" y="1236" type="line"/>
      <point x="341" y="1236" type="line"/>
      <point x="338" y="1372" type="line"/>
      <point x="160" y="1406" type="line"/>
      <point x="160" y="1520" type="line"/>
      <point x="686" y="1520" type="line"/>
      <point x="686" y="1406" type="line"/>
      <point x="508" y="1372" type="line"/>
      <point x="505" y="1236" type="line"/>
      <point x="497" y="1236" type="line"/>
      <point x="495" y="745" type="line"/>
    </contour>
    <contour>
      <point x="425" y="215" type="qcurve" smooth="yes"/>
      <point x="228" y="215"/>
      <point x="60" y="490"/>
      <point x="60" y="729" type="qcurve"/>
      <point x="60" y="986"/>
      <point x="242" y="1293"/>
      <point x="425" y="1293" type="qcurve" smooth="yes"/>
      <point x="623" y="1293"/>
      <point x="790" y="1018"/>
      <point x="790" y="771" type="qcurve" smooth="yes"/>
      <point x="790" y="522"/>
      <point x="608" y="215"/>
    </contour>
    <contour>
      <point x="425" y="327" type="qcurve"/>
      <point x="778" y="327"/>
      <point x="605" y="593"/>
      <point x="605" y="771" type="qcurve" smooth="yes"/>
      <point x="605" y="961"/>
      <point x="793" y="1173"/>
      <point x="425" y="1173" type="qcurve"/>
      <point x="59" y="1173"/>
      <point x="242" y="907"/>
      <point x="242" y="729" type="qcurve" smooth="yes"/>
      <point x="242" y="559"/>
      <point x="50" y="327"/>
    </contour>
  </outline>
</glyph>
<glyph name="Psi" format="2">
	<unicode hex="03A8"/>
	<advance width="1224"/>
	<outline>
		<contour>
			<point x="304" y="0" type="line"/>
			<point x="304" y="100" type="line"/>
			<point x="522" y="135" type="line"/>
			<point x="523" y="520" type="line"/>
			<point x="528" y="520" type="line"/>
			<point x="528" y="811" type="line"/>
			<point x="522" y="1352" type="line"/>
			<point x="344" y="1386" type="line"/>
			<point x="344" y="1500" type="line"/>
			<point x="880" y="1500" type="line"/>
			<point x="880" y="1386" type="line"/>
			<point x="702" y="1352" type="line"/>
			<point x="696" y="811" type="line"/>
			<point x="696" y="520" type="line"/>
			<point x="701" y="520" type="line"/>
			<point x="702" y="135" type="line"/>
			<point x="920" y="100" type="line"/>
			<point x="920" y="0" type="line"/>
		</contour>
		<contour>
			<point x="612" y="462" type="qcurve" smooth="yes"/>
			<point x="431" y="462"/>
			<point x="250" y="716"/>
			<point x="242" y="1007" type="qcurve" smooth="yes"/>
			<point x="232" y="1352" type="line"/>
			<point x="64" y="1386" type="line"/>
			<point x="64" y="1500" type="line"/>
			<point x="367" y="1500" type="line"/>
			<point x="400" y="1477" type="line"/>
			<point x="420" y="1013" type="line" smooth="yes"/>
			<point x="432" y="724"/>
			<point x="359" y="577"/>
			<point x="612" y="577" type="qcurve" smooth="yes"/>
			<point x="864" y="577"/>
			<point x="792" y="724"/>
			<point x="804" y="1013" type="qcurve" smooth="yes"/>
			<point x="824" y="1477" type="line"/>
			<point x="857" y="1500" type="line"/>
			<point x="1160" y="1500" type="line"/>
			<point x="1160" y="1386" type="line"/>
			<point x="992" y="1352" type="line"/>
			<point x="982" y="1007" type="line" smooth="yes"/>
			<point x="974" y="716"/>
			<point x="792" y="462"/>
		</contour>
	</outline>
</glyph>
<glyph name="Omega" format="2">
	<unicode hex="03A9"/>
	<advance width="772"/>
	<outline>
		<contour>
			<point x="85" y="0" type="line"/>
			<point x="45" y="378" type="line"/>
			<point x="155" y="378" type="line"/>
			<point x="231" y="108" type="line"/>
			<point x="269" y="108" type="line"/>
			<point x="282" y="236" type="line"/>
			<point x="246" y="302"/>
			<point x="130" y="633"/>
			<point x="130" y="872" type="qcurve" smooth="yes"/>
			<point x="130" y="1168"/>
			<point x="273" y="1520"/>
			<point x="386" y="1520" type="qcurve" smooth="yes"/>
			<point x="499" y="1520"/>
			<point x="642" y="1171"/>
			<point x="642" y="871" type="qcurve" smooth="yes"/>
			<point x="642" y="633"/>
			<point x="524" y="302"/>
			<point x="490" y="236" type="qcurve"/>
			<point x="503" y="108" type="line"/>
			<point x="541" y="108" type="line"/>
			<point x="617" y="378" type="line"/>
			<point x="727" y="378" type="line"/>
			<point x="687" y="0" type="line"/>
			<point x="367" y="0" type="line"/>
			<point x="337" y="330" type="line"/>
			<point x="534" y="393"/>
			<point x="451" y="646"/>
			<point x="451" y="872" type="qcurve" smooth="yes"/>
			<point x="451" y="1132"/>
			<point x="627" y="1380"/>
			<point x="386" y="1380" type="qcurve" smooth="yes"/>
			<point x="145" y="1380"/>
			<point x="321" y="1131"/>
			<point x="321" y="872" type="qcurve" smooth="yes"/>
			<point x="321" y="646"/>
			<point x="238" y="393"/>
			<point x="435" y="330" type="qcurve"/>
			<point x="405" y="0" type="line"/>
		</contour>
	</outline>
	<anchor name="tonos" x="25" y="1500"/>
</glyph>
<glyph name="Dje" format="2">
	<unicode hex="0402"/>
	<advance width="963"/>
	<outline>
		<contour>
			<point x="577" y="746" type="qcurve" smooth="yes"/>
			<point x="432" y="746"/>
			<point x="426" y="735"/>
			<point x="391" y="702" type="qcurve"/>
			<point x="391" y="824" type="line"/>
			<point x="435" y="859"/>
			<point x="542" y="881"/>
			<point x="603" y="881" type="qcurve" smooth="yes"/>
			<point x="727" y="881"/>
			<point x="903" y="680"/>
			<point x="903" y="438" type="qcurve" smooth="yes"/>
			<point x="903" y="229"/>
			<point x="771" y="0"/>
			<point x="670" y="0" type="qcurve"/>
			<point x="670" y="100" type="line"/>
			<point x="781" y="122"/>
			<point x="710" y="304"/>
			<point x="710" y="438" type="qcurve" smooth="yes"/>
			<point x="710" y="594"/>
			<point x="728" y="746"/>
		</contour>
		<contour>
			<point x="40" y="1052" type="line"/>
			<point x="40" y="1500" type="line"/>
			<point x="815" y="1500" type="line"/>
			<point x="815" y="1092" type="line"/>
			<point x="705" y="1092" type="line"/>
			<point x="670" y="1382" type="line"/>
			<point x="518" y="1382" type="line"/>
			<point x="499" y="1362" type="line"/>
			<point x="499" y="754" type="line"/>
			<point x="499" y="136" type="line"/>
			<point x="719" y="100" type="line"/>
			<point x="719" y="0" type="line"/>
			<point x="100" y="0" type="line"/>
			<point x="100" y="100" type="line"/>
			<point x="319" y="136" type="line"/>
			<point x="320" y="754" type="line"/>
			<point x="319" y="1362" type="line"/>
			<point x="310" y="1382" type="line"/>
			<point x="185" y="1382" type="line"/>
			<point x="150" y="1052" type="line"/>
		</contour>
	</outline>
</glyph>
<glyph name="Ieukran" format="2">
	<unicode hex="0404"/>
	<advance width="582"/>
	<outline>
		<contour>
			<point x="80" y="690" type="qcurve" smooth="yes"/>
			<point x="80" y="1038"/>
			<point x="228" y="1520"/>
			<point x="324" y="1520" type="qcurve" smooth="yes"/>
			<point x="364" y="1520"/>
			<point x="420" y="1446"/>
			<point x="459" y="1366" type="qcurve"/>
			<point x="473" y="1500" type="line"/>
			<point x="562" y="1500" type="line"/>
			<point x="562" y="1033" type="line"/>
			<point x="455" y="1033" type="line"/>
			<point x="437" y="1205" type="line" smooth="yes"/>
			<point x="428" y="1293"/>
			<point x="396" y="1370"/>
			<point x="325" y="1370" type="qcurve" smooth="yes"/>
			<point x="52" y="1370"/>
			<point x="271" y="1033"/>
			<point x="271" y="730" type="qcurve" smooth="yes"/>
			<point x="271" y="369"/>
			<point x="96" y="123"/>
			<point x="357" y="123" type="qcurve" smooth="yes"/>
			<point x="423" y="123"/>
			<point x="451" y="182"/>
			<point x="473" y="294" type="qcurve"/>
			<point x="570" y="240" type="line"/>
			<point x="554" y="143"/>
			<point x="446" y="-30"/>
			<point x="312" y="-30" type="qcurve" smooth="yes"/>
			<point x="206" y="-30"/>
			<point x="80" y="326"/>
		</contour>
		<contour>
			<point x="238" y="717" type="line"/>
			<point x="238" y="825" type="line"/>
			<point x="353" y="829" type="line"/>
			<point x="368" y="1009" type="line"/>
			<point x="473" y="1009" type="line"/>
			<point x="473" y="533" type="line"/>
			<point x="368" y="533" type="line"/>
			<point x="353" y="713" type="line"/>
		</contour>
	</outline>
</glyph>
<glyph name="Lje" format="2">
	<unicode hex="0409"/>
	<advance width="1052"/>
	<outline>
		<contour>
			<point x="819" y="473" type="qcurve" smooth="yes"/>
			<point x="819" y="628"/>
			<point x="913" y="778"/>
			<point x="672" y="778" type="qcurve" smooth="yes"/>
			<point x="643" y="778" type="line"/>
			<point x="634" y="764" type="line"/>
			<point x="635" y="134" type="line"/>
			<point x="669" y="112" type="line"/>
			<point x="680" y="112" type="line" smooth="yes"/>
			<point x="900" y="112"/>
			<point x="819" y="304"/>
		</contour>
		<contour>
			<point x="634" y="1352" type="line"/>
			<point x="633" y="915" type="line"/>
			<point x="642" y="901" type="line"/>
			<point x="688" y="901" type="line" smooth="yes"/>
			<point x="836" y="901"/>
			<point x="1002" y="685"/>
			<point x="1002" y="473" type="qcurve" smooth="yes"/>
			<point x="1002" y="267"/>
			<point x="826" y="0"/>
			<point x="722" y="0" type="qcurve" smooth="yes"/>
			<point x="246" y="0" type="line"/>
			<point x="246" y="100" type="line"/>
			<point x="454" y="135" type="line"/>
			<point x="456" y="736" type="line"/>
			<point x="454" y="1348" type="line"/>
			<point x="414" y="1376" type="line"/>
			<point x="340" y="1376" type="line"/>
			<point x="300" y="1348" type="line"/>
			<point x="292" y="725" type="line" smooth="yes"/>
			<point x="288" y="452"/>
			<point x="275" y="-17"/>
			<point x="143" y="-17" type="qcurve" smooth="yes"/>
			<point x="119" y="-17"/>
			<point x="83" y="-10"/>
			<point x="54" y="0" type="qcurve"/>
			<point x="54" y="208" type="line"/>
			<point x="78" y="200"/>
			<point x="118" y="195"/>
			<point x="139" y="195" type="qcurve" smooth="yes"/>
			<point x="152" y="195"/>
			<point x="154" y="531"/>
			<point x="156" y="725" type="qcurve" smooth="yes"/>
			<point x="164" y="1352" type="line"/>
			<point x="-44" y="1386" type="line"/>
			<point x="-44" y="1500" type="line"/>
			<point x="842" y="1500" type="line"/>
			<point x="842" y="1386" type="line"/>
		</contour>
	</outline>
</glyph>
<glyph name="Nje" format="2">
	<unicode hex="040A"/>
	<advance width="1202"/>
	<outline>
		<contour>
			<point x="82" y="0" type="line"/>
			<point x="82" y="100" type="line"/>
			<point x="290" y="135" type="line"/>
			<point x="292" y="754" type="line"/>
			<point x="290" y="1352" type="line"/>
			<point x="82" y="1386" type="line"/>
			<point x="82" y="1500" type="line"/>
			<point x="656" y="1500" type="line"/>
			<point x="656" y="1386" type="line"/>
			<point x="470" y="1352" type="line"/>
			<point x="468" y="754" type="line"/>
			<point x="470" y="135" type="line"/>
			<point x="655" y="100" type="line"/>
			<point x="655" y="0" type="line"/>
		</contour>
		<contour>
			<point x="380" y="739" type="line"/>
			<point x="380" y="861" type="line"/>
			<point x="537" y="853" type="line"/>
			<point x="691" y="861" type="line"/>
			<point x="691" y="739" type="line"/>
			<point x="537" y="739" type="line"/>
		</contour>
		<contour>
			<point x="969" y="463" type="qcurve" smooth="yes"/>
			<point x="969" y="611"/>
			<point x="1052" y="733"/>
			<point x="816" y="733" type="qcurve" smooth="yes"/>
			<point x="793" y="733" type="line"/>
			<point x="784" y="719" type="line"/>
			<point x="784" y="130" type="line"/>
			<point x="818" y="108" type="line"/>
			<point x="825" y="108" type="line" smooth="yes"/>
			<point x="1036" y="108"/>
			<point x="969" y="294"/>
		</contour>
		<contour>
			<point x="421" y="0" type="line"/>
			<point x="421" y="100" type="line"/>
			<point x="604" y="135" type="line"/>
			<point x="606" y="736" type="line"/>
			<point x="604" y="1352" type="line"/>
			<point x="422" y="1386" type="line"/>
			<point x="422" y="1500" type="line"/>
			<point x="992" y="1500" type="line"/>
			<point x="992" y="1386" type="line"/>
			<point x="784" y="1352" type="line"/>
			<point x="783" y="880" type="line"/>
			<point x="792" y="866" type="line"/>
			<point x="816" y="866" type="line" smooth="yes"/>
			<point x="990" y="866"/>
			<point x="1152" y="665"/>
			<point x="1152" y="463" type="qcurve" smooth="yes"/>
			<point x="1152" y="257"/>
			<point x="982" y="0"/>
			<point x="860" y="0" type="qcurve"/>
		</contour>
	</outline>
</glyph>
<glyph name="Tshe" format="2">
	<unicode hex="040B"/>
	<advance width="1160"/>
	<outline>
		<contour>
			<point x="1090" y="100" type="line"/>
			<point x="1090" y="0" type="line"/>
			<point x="702" y="0" type="line"/>
			<point x="702" y="386" type="line" smooth="yes"/>
			<point x="702" y="569"/>
			<point x="632" y="746"/>
			<point x="489" y="746" type="qcurve" smooth="yes"/>
			<point x="346" y="746"/>
			<point x="377" y="705"/>
			<point x="347" y="672" type="qcurve"/>
			<point x="347" y="797" type="line"/>
			<point x="397" y="827"/>
			<point x="544" y="881"/>
			<point x="604" y="881" type="qcurve" smooth="yes"/>
			<point x="751" y="881"/>
			<point x="871" y="652"/>
			<point x="882" y="379" type="qcurve" smooth="yes"/>
			<point x="882" y="135" type="line"/>
		</contour>
		<contour>
			<point x="80" y="1052" type="line"/>
			<point x="80" y="1500" type="line"/>
			<point x="626" y="1500" type="line"/>
			<point x="626" y="1092" type="line"/>
			<point x="516" y="1092" type="line"/>
			<point x="481" y="1382" type="line"/>
			<point x="458" y="1382" type="line"/>
			<point x="439" y="1362" type="line"/>
			<point x="437" y="754" type="line"/>
			<point x="439" y="136" type="line"/>
			<point x="658" y="100" type="line"/>
			<point x="658" y="0" type="line"/>
			<point x="40" y="0" type="line"/>
			<point x="40" y="100" type="line"/>
			<point x="259" y="136" type="line"/>
			<point x="261" y="754" type="line"/>
			<point x="259" y="1362" type="line"/>
			<point x="250" y="1382" type="line"/>
			<point x="225" y="1382" type="line"/>
			<point x="190" y="1052" type="line"/>
		</contour>
	</outline>
</glyph>
<glyph name="Be" format="2">
	<unicode hex="0411"/>
	<advance width="885"/>
	<outline>
		<contour>
			<point x="620" y="453" type="qcurve" smooth="yes"/>
			<point x="620" y="608"/>
			<point x="717" y="748"/>
			<point x="557" y="748" type="qcurve" smooth="yes"/>
			<point x="478" y="748" type="line"/>
			<point x="469" y="734" type="line"/>
			<point x="471" y="130" type="line"/>
			<point x="505" y="108" type="line"/>
			<point x="557" y="108" type="line" smooth="yes"/>
			<point x="728" y="108"/>
			<point x="620" y="284"/>
		</contour>
		<contour>
			<point x="82" y="0" type="line"/>
			<point x="82" y="100" type="line"/>
			<point x="290" y="135" type="line"/>
			<point x="292" y="736" type="line"/>
			<point x="290" y="1352" type="line"/>
			<point x="82" y="1386" type="line"/>
			<point x="82" y="1500" type="line"/>
			<point x="667" y="1500" type="line"/>
			<point x="667" y="1142" type="line"/>
			<point x="557" y="1142" type="line"/>
			<point x="522" y="1382" type="line"/>
			<point x="500" y="1382" type="line"/>
			<point x="470" y="1362" type="line"/>
			<point x="468" y="875" type="line"/>
			<point x="477" y="861" type="line"/>
			<point x="627" y="861" type="line" smooth="yes"/>
			<point x="720" y="861"/>
			<point x="815" y="665"/>
			<point x="815" y="453" type="qcurve" smooth="yes"/>
			<point x="815" y="247"/>
			<point x="715" y="0"/>
			<point x="620" y="0" type="qcurve" smooth="yes"/>
		</contour>
	</outline>
</glyph>
<glyph name="Ze" format="2">
	<unicode hex="0417"/>
	<advance width="860"/>
	<outline>
		<contour>
			<point x="474" y="98" type="qcurve" smooth="yes"/>
			<point x="652" y="98"/>
			<point x="599" y="260"/>
			<point x="599" y="439" type="qcurve" smooth="yes"/>
			<point x="599" y="560"/>
			<point x="693" y="718"/>
			<point x="494" y="717" type="qcurve" smooth="yes"/>
			<point x="334" y="716" type="line"/>
			<point x="334" y="845" type="line"/>
			<point x="495" y="846" type="line" smooth="yes"/>
			<point x="632" y="847"/>
			<point x="545" y="989"/>
			<point x="545" y="1125" type="qcurve" smooth="yes"/>
			<point x="545" y="1252"/>
			<point x="579" y="1393"/>
			<point x="435" y="1393" type="qcurve" smooth="yes"/>
			<point x="304" y="1393"/>
			<point x="311" y="1292"/>
			<point x="306" y="1180" type="qcurve" smooth="yes"/>
			<point x="300" y="1051" type="line"/>
			<point x="186" y="1051" type="line"/>
			<point x="186" y="1500" type="line"/>
			<point x="280" y="1500" type="line"/>
			<point x="312" y="1422" type="line"/>
			<point x="360" y="1470"/>
			<point x="447" y="1521"/>
			<point x="496" y="1521" type="qcurve" smooth="yes"/>
			<point x="575" y="1521"/>
			<point x="724" y="1310"/>
			<point x="724" y="1124" type="qcurve" smooth="yes"/>
			<point x="724" y="1025"/>
			<point x="698" y="855"/>
			<point x="655" y="802" type="qcurve"/>
			<point x="655" y="795" type="line"/>
			<point x="734" y="742"/>
			<point x="785" y="542"/>
			<point x="785" y="419" type="qcurve" smooth="yes"/>
			<point x="785" y="227"/>
			<point x="621" y="-30"/>
			<point x="516" y="-30" type="qcurve" smooth="yes"/>
			<point x="451" y="-30"/>
			<point x="358" y="14"/>
			<point x="305" y="67" type="qcurve"/>
			<point x="273" y="-11" type="line"/>
			<point x="179" y="-11" type="line"/>
			<point x="179" y="448" type="line"/>
			<point x="293" y="448" type="line"/>
			<point x="299" y="309" type="line" smooth="yes"/>
			<point x="304" y="199"/>
			<point x="327" y="98"/>
		</contour>
	</outline>
	<anchor name="bottom" x="517" y="0"/>
</glyph>
<glyph name="Ef" format="2">
	<unicode hex="0424"/>
	<advance width="1278"/>
	<outline>
		<contour>
			<point x="640" y="215" type="line"/>
			<point x="443" y="215"/>
			<point x="40" y="490"/>
			<point x="40" y="718" type="qcurve" smooth="yes"/>
			<point x="40" y="986"/>
			<point x="469" y="1293"/>
			<point x="640" y="1293" type="qcurve"/>
			<point x="640" y="1173" type="line"/>
			<point x="286" y="1173"/>
			<point x="223" y="937"/>
			<point x="223" y="729" type="qcurve" smooth="yes"/>
			<point x="223" y="529"/>
			<point x="286" y="327"/>
			<point x="640" y="327" type="qcurve"/>
		</contour>
		<contour>
			<point x="377" y="-24" type="line"/>
			<point x="377" y="85" type="line"/>
			<point x="555" y="119" type="line"/>
			<point x="558" y="260" type="line"/>
			<point x="566" y="260" type="line"/>
			<point x="568" y="745" type="line"/>
			<point x="566" y="1245" type="line"/>
			<point x="558" y="1246" type="line"/>
			<point x="555" y="1377" type="line"/>
			<point x="377" y="1411" type="line"/>
			<point x="377" y="1520" type="line"/>
			<point x="903" y="1520" type="line"/>
			<point x="903" y="1411" type="line"/>
			<point x="725" y="1377" type="line"/>
			<point x="722" y="1246" type="line"/>
			<point x="714" y="1246" type="line"/>
			<point x="712" y="745" type="line"/>
			<point x="714" y="261" type="line"/>
			<point x="722" y="260" type="line"/>
			<point x="725" y="119" type="line"/>
			<point x="903" y="85" type="line"/>
			<point x="903" y="-24" type="line"/>
		</contour>
		<contour>
			<point x="640" y="327" type="line"/>
			<point x="1016" y="327"/>
			<point x="1055" y="563"/>
			<point x="1055" y="771" type="qcurve" smooth="yes"/>
			<point x="1055" y="971"/>
			<point x="1016" y="1173"/>
			<point x="640" y="1173" type="qcurve"/>
			<point x="640" y="1293" type="line"/>
			<point x="853" y="1293"/>
			<point x="1238" y="1018"/>
			<point x="1238" y="790" type="qcurve" smooth="yes"/>
			<point x="1238" y="522"/>
			<point x="828" y="215"/>
			<point x="640" y="215" type="qcurve"/>
		</contour>
	</outline>
</glyph>
<glyph name="Hard" format="2">
	<unicode hex="042A"/>
	<advance width="778"/>
	<outline>
		<contour>
			<point x="636" y="1500" type="line"/>
			<point x="636" y="1386" type="line"/>
			<point x="428" y="1352" type="line"/>
			<point x="427" y="915" type="line"/>
			<point x="436" y="901" type="line"/>
			<point x="540" y="901" type="line" smooth="yes"/>
			<point x="632" y="901"/>
			<point x="728" y="685"/>
			<point x="728" y="473" type="qcurve" smooth="yes"/>
			<point x="728" y="267"/>
			<point x="626" y="0"/>
			<point x="535" y="0" type="qcurve" smooth="yes"/>
			<point x="40" y="0" type="line"/>
			<point x="40" y="100" type="line"/>
			<point x="248" y="135" type="line"/>
			<point x="250" y="736" type="line"/>
			<point x="248" y="1382" type="line"/>
			<point x="223" y="1382" type="line"/>
			<point x="188" y="1052" type="line"/>
			<point x="78" y="1052" type="line"/>
			<point x="78" y="1500" type="line"/>
		</contour>
		<contour>
			<point x="437" y="788" type="line"/>
			<point x="428" y="774" type="line"/>
			<point x="429" y="130" type="line"/>
			<point x="463" y="108" type="line"/>
			<point x="468" y="108" type="line" smooth="yes"/>
			<point x="499" y="108"/>
			<point x="533" y="304"/>
			<point x="533" y="473" type="qcurve" smooth="yes"/>
			<point x="533" y="628"/>
			<point x="498" y="788"/>
			<point x="468" y="788" type="qcurve" smooth="yes"/>
		</contour>
	</outline>
</glyph>
<glyph name="Ecyr" format="2">
	<unicode hex="042D"/>
	<advance width="661"/>
	<outline>
		<contour>
			<point x="486" y="713" type="line"/>
			<point x="331" y="703" type="line"/>
			<point x="296" y="543" type="line"/>
			<point x="186" y="543" type="line"/>
			<point x="186" y="979" type="line"/>
			<point x="296" y="979" type="line"/>
			<point x="331" y="819" type="line"/>
			<point x="486" y="809" type="line"/>
		</contour>
		<contour>
			<point x="333" y="97" type="qcurve" smooth="yes"/>
			<point x="364" y="97"/>
			<point x="391" y="434"/>
			<point x="391" y="745" type="qcurve" smooth="yes"/>
			<point x="391" y="1025"/>
			<point x="361" y="1392"/>
			<point x="334" y="1392" type="qcurve" smooth="yes"/>
			<point x="320" y="1392"/>
			<point x="301" y="1296"/>
			<point x="298" y="1180" type="qcurve" smooth="yes"/>
			<point x="296" y="1051" type="line"/>
			<point x="182" y="1051" type="line"/>
			<point x="182" y="1500" type="line"/>
			<point x="276" y="1500" type="line"/>
			<point x="308" y="1422" type="line"/>
			<point x="322" y="1461"/>
			<point x="369" y="1520"/>
			<point x="404" y="1520" type="qcurve" smooth="yes"/>
			<point x="488" y="1520"/>
			<point x="581" y="1097"/>
			<point x="581" y="752" type="qcurve" smooth="yes"/>
			<point x="581" y="423"/>
			<point x="486" y="-31"/>
			<point x="399" y="-31" type="qcurve" smooth="yes"/>
			<point x="366" y="-31"/>
			<point x="318" y="31"/>
			<point x="306" y="67" type="qcurve"/>
			<point x="274" y="-11" type="line"/>
			<point x="180" y="-11" type="line"/>
			<point x="180" y="448" type="line"/>
			<point x="294" y="448" type="line"/>
			<point x="297" y="309" type="line" smooth="yes"/>
			<point x="300" y="199"/>
			<point x="319" y="97"/>
		</contour>
	</outline>
	<anchor name="bottom" x="387" y="0"/>
	<anchor name="top" x="387" y="1500"/>
</glyph>
<glyph name="Ya" format="2">
	<unicode hex="042F"/>
	<advance width="874"/>
	<outline>
		<contour>
			<point x="792" y="0" type="line"/>
			<point x="792" y="100" type="line"/>
			<point x="584" y="137" type="line"/>
			<point x="582" y="764" type="line"/>
			<point x="584" y="1352" type="line"/>
			<point x="792" y="1386" type="line"/>
			<point x="792" y="1500" type="line"/>
			<point x="299" y="1500" type="line" smooth="yes"/>
			<point x="205" y="1500"/>
			<point x="108" y="1282"/>
			<point x="108" y="1083" type="qcurve" smooth="yes"/>
			<point x="108" y="896"/>
			<point x="206" y="663"/>
			<point x="290" y="663" type="qcurve"/>
			<point x="295" y="655" type="line"/>
			<point x="421" y="665" type="line"/>
			<point x="421" y="767" type="line"/>
			<point x="367" y="767" type="line" smooth="yes"/>
			<point x="196" y="767"/>
			<point x="303" y="942"/>
			<point x="303" y="1092" type="qcurve" smooth="yes"/>
			<point x="303" y="1233"/>
			<point x="201" y="1382"/>
			<point x="367" y="1382" type="qcurve" smooth="yes"/>
			<point x="369" y="1382" type="line"/>
			<point x="403" y="1360" type="line"/>
			<point x="406" y="774" type="line"/>
			<point x="404" y="132" type="line"/>
			<point x="176" y="100" type="line"/>
			<point x="176" y="0" type="line"/>
		</contour>
		<contour>
			<point x="402" y="699" type="line"/>
			<point x="225" y="729" type="line"/>
			<point x="81" y="315" type="line" smooth="yes"/>
			<point x="35" y="182"/>
			<point x="41" y="101"/>
			<point x="30" y="100" type="qcurve"/>
			<point x="30" y="0" type="line"/>
			<point x="165" y="0" type="line"/>
			<point x="180" y="20" type="line"/>
		</contour>
	</outline>
	<anchor name="bottom" x="630" y="0"/>
	<anchor name="top" x="803" y="1500"/>
</glyph>
<glyph name="Shha" format="2">
	<unicode hex="04BA"/>
	<advance width="1049"/>
	<outline>
		<contour>
			<point x="678" y="1500" type="line"/>
			<point x="678" y="1389" type="line"/>
			<point x="470" y="1354" type="line"/>
			<point x="468" y="726" type="line"/>
			<point x="470" y="139" type="line"/>
			<point x="678" y="105" type="line"/>
			<point x="678" y="0" type="line"/>
			<point x="82" y="0" type="line"/>
			<point x="82" y="105" type="line"/>
			<point x="290" y="139" type="line"/>
			<point x="292" y="746" type="line"/>
			<point x="290" y="1354" type="line"/>
			<point x="82" y="1389" type="line"/>
			<point x="82" y="1500" type="line"/>
		</contour>
		<contour>
			<point x="999" y="105" type="line"/>
			<point x="999" y="0" type="line"/>
			<point x="403" y="0" type="line"/>
			<point x="403" y="105" type="line"/>
			<point x="610" y="139" type="line"/>
			<point x="611" y="426" type="line" smooth="yes"/>
			<point x="612" y="621"/>
			<point x="559" y="776"/>
			<point x="495" y="776" type="qcurve" smooth="yes"/>
			<point x="462" y="776"/>
			<point x="411" y="739"/>
			<point x="380" y="702" type="qcurve"/>
			<point x="380" y="829" type="line"/>
			<point x="423" y="869"/>
			<point x="504" y="911"/>
			<point x="567" y="911" type="qcurve" smooth="yes"/>
			<point x="674" y="911"/>
			<point x="791" y="696"/>
			<point x="791" y="419" type="qcurve" smooth="yes"/>
			<point x="791" y="139" type="line"/>
		</contour>
	</outline>
</glyph>
<glyph name="Schwacyr" format="2">
  <advance width="640"/>
  <unicode hex="04D8"/>
  <outline>
    <contour>
      <point x="82" y="793" type="qcurve"/>
      <point x="322" y="785" type="line"/>
      <point x="466" y="793" type="line"/>
      <point x="466" y="661" type="line"/>
      <point x="322" y="661" type="line"/>
      <point x="271" y="661" type="line"/>
      <point x="271" y="653" type="line" smooth="yes"/>
      <point x="271" y="455"/>
      <point x="296" y="101"/>
      <point x="319" y="101" type="qcurve" smooth="yes"/>
      <point x="345" y="101"/>
      <point x="370" y="436"/>
      <point x="370" y="745" type="qcurve" smooth="yes"/>
      <point x="370" y="1025"/>
      <point x="340" y="1392"/>
      <point x="314" y="1392" type="qcurve" smooth="yes"/>
      <point x="300" y="1392"/>
      <point x="281" y="1296"/>
      <point x="278" y="1180" type="qcurve" smooth="yes"/>
      <point x="275" y="1051" type="line"/>
      <point x="161" y="1051" type="line"/>
      <point x="161" y="1500" type="line"/>
      <point x="272" y="1500" type="line"/>
      <point x="275" y="1422" type="line"/>
      <point x="291" y="1461"/>
      <point x="341" y="1520"/>
      <point x="377" y="1520" type="qcurve" smooth="yes"/>
      <point x="463" y="1520"/>
      <point x="560" y="1097"/>
      <point x="560" y="752" type="qcurve" smooth="yes"/>
      <point x="560" y="423"/>
      <point x="432" y="-31"/>
      <point x="316" y="-31" type="qcurve" smooth="yes"/>
      <point x="207" y="-31"/>
      <point x="80" y="374"/>
      <point x="80" y="697" type="qcurve" smooth="yes"/>
      <point x="80" y="721"/>
      <point x="82" y="770"/>
    </contour>
  </outline>
</glyph>
<glyph name="diagonalbarO" format="2">
  <advance width="323"/>
  <outline>
    <contour>
      <point x="0" y="-120" type="line"/>
      <point x="14" y="70" type="line"/>
      <point x="13" y="65" type="line"/>
      <point x="85" y="877" type="line"/>
      <point x="253" y="809" type="line"/>
      <point x="186" y="38" type="line"/>
      <point x="185" y="34" type="line"/>
      <point x="171" y="-130" type="line"/>
    </contour>
    <contour>
      <point x="148" y="1624" type="line"/>
      <point x="323" y="1624" type="line"/>
      <point x="297" y="1378" type="line"/>
      <point x="297" y="1382" type="line"/>
      <point x="253" y="809" type="line"/>
      <point x="85" y="877" type="line"/>
      <point x="125" y="1409" type="line"/>
      <point x="126" y="1414" type="line"/>
    </contour>
  </outline>
</glyph>
